<svg width="780" height="100" viewBox="0 0 780 100" fill="none" xmlns="http://www.w3.org/2000/svg">
<path d="M242.914 60.7598C244.046 61.2366 245.288 61.475 246.641 61.475C248.705 61.475 250.546 61.0221 252.165 60.1161C253.785 59.2102 255.149 58.0301 256.258 56.5759C257.39 55.0978 258.244 53.4409 258.821 51.6053C259.42 49.7458 259.719 47.8862 259.719 46.0267C259.719 44.4056 259.486 42.9514 259.02 41.664C258.577 40.3766 257.945 39.2919 257.124 38.4099C256.303 37.5039 255.327 36.8126 254.195 36.3358C253.064 35.859 251.822 35.6206 250.468 35.6206C248.427 35.6206 246.597 36.0855 244.978 37.0152C243.358 37.9211 241.983 39.1131 240.851 40.5912C239.742 42.0454 238.888 43.6904 238.289 45.5261C237.69 47.3618 237.39 49.2094 237.39 51.0689C237.39 52.69 237.612 54.1442 238.056 55.4316C238.522 56.7189 239.165 57.8156 239.986 58.7215C240.807 59.6036 241.783 60.283 242.914 60.7598Z" fill="#ED2E3C"/>
<path d="M22.7301 2.29323L0 97.1847H18.9895L41.7196 2.29323H22.7301Z" fill="#ED2E3C"/>
<path fill-rule="evenodd" clip-rule="evenodd" d="M225.507 96.3631C230.162 98.1888 235.274 99.1017 240.843 99.1017C249.332 99.1017 256.909 97.3673 263.573 93.8984C270.237 90.4295 275.851 85.9109 280.415 80.3425C285.071 74.6828 288.585 68.3384 290.959 61.3094C293.423 54.1891 294.656 47.0689 294.656 39.9486C294.656 33.7411 293.697 28.1727 291.78 23.2433C289.955 18.3139 287.353 14.1604 283.975 10.7828C280.598 7.31394 276.581 4.66666 271.926 2.84095C267.27 1.01523 262.158 0.102371 256.59 0.102371C248.191 0.102371 240.66 1.88244 233.996 5.44259C227.333 8.91144 221.673 13.4757 217.017 19.1354C212.453 24.7039 208.939 31.0026 206.474 38.0316C204.009 45.0606 202.777 52.1352 202.777 59.2555C202.777 65.4629 203.69 71.0313 205.515 75.9608C207.432 80.8902 210.08 85.0893 213.457 88.5582C216.835 91.9358 220.851 94.5374 225.507 96.3631ZM242.623 21.7371C246.274 19.5462 250.2 18.4508 254.399 18.4508C260.88 18.4508 265.536 20.596 268.366 24.8864C271.287 29.0856 272.747 34.6084 272.747 41.4548C272.747 46.5668 271.971 51.4962 270.419 56.2431C268.959 60.8986 266.859 65.0521 264.121 68.7036C261.473 72.355 258.324 75.2761 254.673 77.467C251.112 79.6578 247.233 80.7533 243.034 80.7533C236.552 80.7533 231.851 78.6537 228.93 74.4546C226.1 70.1641 224.685 64.5957 224.685 57.7493C224.685 52.7286 225.416 47.8448 226.876 43.0979C228.428 38.3511 230.528 34.1519 233.175 30.5005C235.913 26.8491 239.063 23.9279 242.623 21.7371Z" fill="#ED2E3C"/>
<path d="M89.8375 97.1847C86.0035 86.413 81.713 75.6413 76.9662 64.8696C72.3106 54.0978 67.2443 43.9195 61.7671 34.3345L46.705 97.1847H25.7549L48.4851 2.29323H64.7795C66.8791 5.48823 69.1156 9.27658 71.489 13.6583C73.9538 17.9487 76.4641 22.6043 79.0201 27.625C81.5761 32.6457 84.1321 37.8946 86.6881 43.3718C89.2441 48.7576 91.6632 54.0978 93.9453 59.3924L107.501 2.29323H128.725L105.858 97.1847H89.8375Z" fill="white"/>
<path d="M196.257 62.6787C193.153 75.55 188.087 84.8611 181.058 90.6121C174.12 96.2718 164.9 99.1017 153.398 99.1017C147.464 99.1017 142.444 98.417 138.336 97.0478C134.319 95.5872 131.033 93.6245 128.477 91.1598C125.921 88.6038 124.05 85.5914 122.863 82.1226C121.767 78.5624 121.22 74.7284 121.22 70.6206C121.22 65.8737 121.904 60.8073 123.274 55.4215L136.008 2.29323H157.369L143.95 58.4339C143.037 61.7202 142.581 65.0521 142.581 68.4297C142.581 70.2554 142.763 71.8986 143.128 73.3591C143.585 74.8197 144.315 76.0977 145.319 77.1931C146.415 78.2886 147.83 79.1558 149.564 79.7948C151.39 80.3425 153.626 80.6163 156.273 80.6163C161.751 80.6163 165.904 78.9276 168.734 75.55C171.564 72.0811 173.755 67.1973 175.307 60.8986L189.273 2.29323H210.634L196.257 62.6787Z" fill="white"/>
<path fill-rule="evenodd" clip-rule="evenodd" d="M336.396 1.1978C342.147 1.1978 347.305 1.8368 351.869 3.1148C356.525 4.30151 360.45 6.08159 363.645 8.45502C366.84 10.7372 369.305 13.567 371.039 16.9446C372.774 20.3222 373.641 24.1105 373.641 28.3096C373.641 35.1561 372.317 40.9527 369.67 45.6996C367.023 50.4464 363.371 54.2804 358.716 57.2016C354.06 60.1227 348.583 62.2223 342.284 63.5003C335.986 64.7783 329.139 65.4173 321.745 65.4173H316.405L308.737 97.1847H287.513L309.832 3.66252C314.762 2.74966 319.417 2.11066 323.799 1.74552C328.272 1.38037 332.471 1.1978 336.396 1.1978ZM334.616 19.1354C333.065 19.1354 331.741 19.1811 330.645 19.2724L327.359 19.5462L320.787 47.4796H326.127C329.961 47.4796 333.43 47.2058 336.533 46.6581C339.728 46.0191 342.421 45.0149 344.612 43.6456C346.894 42.2764 348.629 40.5419 349.815 38.4424C351.093 36.2515 351.732 33.6042 351.732 30.5005C351.732 26.3926 350.226 23.4715 347.214 21.7371C344.293 20.0026 340.094 19.1354 334.616 19.1354Z" fill="#ED2E3C"/>
<path d="M385.372 2.29323L362.642 97.1847H427.683L432.065 79.5209H388.247L393.725 56.2431H429.6L433.845 38.9901H397.969L402.351 19.8201H443.019L447.401 2.29323H385.372Z" fill="#ED2E3C"/>
<path d="M495.702 97.1847C491.868 86.413 487.578 75.6413 482.831 64.8696C478.175 54.0978 473.109 43.9195 467.632 34.3345L452.57 97.1847H431.62L454.35 2.29323H470.644C472.744 5.48823 474.98 9.27658 477.354 13.6583C479.818 17.9487 482.329 22.6043 484.885 27.625C487.441 32.6457 489.997 37.8946 492.553 43.3718C495.109 48.7576 497.528 54.0978 499.81 59.3924L513.366 2.29323L522.438 2.29241L541.496 45.1303L498.13 97.1846H522.635L495.702 97.1847Z" fill="#ED2E3C"/>
<path d="M563.11 97.1846C561.825 93.2264 560.632 89.7285 559.53 86.6909C558.521 83.6532 557.511 80.8457 556.502 78.2683C555.584 75.5988 554.62 73.1135 553.611 70.8122C552.601 68.4189 551.5 65.9336 550.307 63.3562L522.635 97.1846H563.11Z" fill="#ED2E3C"/>
<path d="M602.338 97.1846H642.812C641.527 93.2264 640.334 89.7285 639.233 86.6909C638.223 83.6532 637.213 80.8457 636.204 78.2683C635.286 75.5988 634.322 73.1135 633.313 70.8122C632.303 68.4189 631.202 65.9336 630.009 63.3562L602.338 97.1846Z" fill="#ED2E3C"/>
<path d="M687.133 97.1846H696.292L718.955 2.29242H709.933L687.133 97.1846Z" fill="#ED2E3C"/>
<path d="M688.458 2.29242H682.45C679.951 5.82047 677.292 9.46796 674.476 13.2349C671.539 17.193 668.464 21.1972 665.252 25.2474C662.131 29.2056 658.965 33.1177 655.753 36.9838C652.54 40.7579 649.42 44.3478 646.391 47.7537C648.319 52.08 650.108 56.1763 651.76 60.0424C653.504 63.9085 655.156 67.8206 656.716 71.7788C658.277 75.6449 659.791 79.649 661.259 83.7913C662.727 87.9297 664.239 92.3897 665.798 97.1713L688.458 2.29242Z" fill="#ED2E3C"/>
<path d="M658.903 2.29242L625.773 2.29241L636.892 31.0466C641.022 26.0759 645.015 21.0591 648.869 15.9964C652.499 11.1428 655.843 6.57478 658.903 2.29242Z" fill="#ED2E3C"/>
<path d="M579.201 2.29241L546.071 2.29241L557.19 31.0466C561.32 26.0759 565.312 21.0591 569.167 15.9964C572.797 11.1428 576.141 6.57477 579.201 2.29241Z" fill="#ED2E3C"/>
<path d="M740.43 2.29242L717.63 97.1846H726.788L749.452 2.29242H740.43Z" fill="#ED2E3C"/>
<path d="M770.927 2.29242L748.127 97.1846L757.17 97.1846L779.684 2.29242H770.927Z" fill="#ED2E3C"/>
<path d="M594.773 13.2349C597.45 9.65494 599.984 6.18288 602.374 2.81869L621.198 45.1303L583.742 90.0915C583.003 87.9146 582.274 85.8145 581.557 83.7913C580.089 79.649 578.574 75.6449 577.014 71.7788C575.454 67.8206 573.802 63.9085 572.058 60.0424C570.406 56.1763 568.616 52.08 566.689 47.7537C569.718 44.3478 572.838 40.7579 576.051 36.9838C579.263 33.1177 582.429 29.2056 585.55 25.2474C588.762 21.1972 591.836 17.193 594.773 13.2349Z" fill="#ED2E3C"/>
</svg>
