<svg width="202" height="38" viewBox="0 0 202 38" fill="none" xmlns="http://www.w3.org/2000/svg">
<path d="M34.6158 36.4922C33.1818 32.4632 31.5771 28.4343 29.8016 24.4054C28.0603 20.3764 26.1653 16.5694 24.1167 12.9843L18.483 36.4922H10.647L19.1488 0.99994H25.2434C26.0287 2.19496 26.8652 3.61192 27.753 5.25082C28.6748 6.85556 29.6138 8.59689 30.5698 10.4748C31.5258 12.3527 32.4819 14.3159 33.4379 16.3645C34.3939 18.379 35.2987 20.3764 36.1523 22.3567L41.2226 0.99994H49.161L40.608 36.4922H34.6158ZM74.4198 23.5859C73.2589 28.4002 71.3639 31.8828 68.7349 34.0339C66.14 36.1508 62.6915 37.2092 58.3894 37.2092C56.17 37.2092 54.2921 36.9531 52.7557 36.441C51.2534 35.8947 50.0242 35.1606 49.0682 34.2387C48.1121 33.2827 47.4122 32.156 46.9683 30.8585C46.5586 29.5269 46.3537 28.0929 46.3537 26.5564C46.3537 24.7809 46.6098 22.886 47.122 20.8715L51.885 0.99994H59.8746L54.8555 21.9982C54.5141 23.2274 54.3433 24.4736 54.3433 25.737C54.3433 26.4198 54.4116 27.0344 54.5482 27.5807C54.7189 28.127 54.9921 28.605 55.3677 29.0147C55.7774 29.4245 56.3066 29.7488 56.9553 29.9878C57.6382 30.1927 58.4747 30.2951 59.4649 30.2951C61.5135 30.2951 63.067 29.6635 64.1255 28.4002C65.1839 27.1027 66.0034 25.276 66.5838 22.9201L71.8078 0.99994H79.7974L74.4198 23.5859Z" fill="white"/>
<path d="M96.1667 7.04335C94.5961 7.04335 93.1279 7.45308 91.7622 8.27252C90.4306 9.09197 89.2526 10.1846 88.2283 11.5503C87.2381 12.916 86.4528 14.4867 85.8724 16.2621C85.3261 18.0376 85.053 19.8643 85.053 21.7422C85.053 24.3029 85.5822 26.3857 86.6406 27.9904C87.7332 29.561 89.4916 30.3463 91.9158 30.3463C93.4864 30.3463 94.9375 29.9366 96.2691 29.1172C97.6349 28.2977 98.8128 27.2051 99.803 25.8394C100.827 24.4736 101.613 22.9201 102.159 21.1788C102.739 19.4033 103.03 17.5596 103.03 15.6475C103.03 13.0868 102.483 11.0211 101.391 9.45048C100.332 7.84573 98.5909 7.04335 96.1667 7.04335ZM91.0964 37.2092C89.0136 37.2092 87.1016 36.8678 85.3602 36.1849C83.6189 35.502 82.1166 34.5289 80.8533 33.2656C79.59 31.9682 78.5998 30.3976 77.8828 28.5538C77.1999 26.7101 76.8585 24.6273 76.8585 22.3055C76.8585 19.6423 77.3194 16.9962 78.2413 14.3672C79.1632 11.7381 80.4777 9.38219 82.1849 7.29943C83.9262 5.18253 86.0431 3.47535 88.5356 2.17789C91.0281 0.846293 93.8449 0.180493 96.9861 0.180493C99.0689 0.180493 100.981 0.521929 102.722 1.2048C104.464 1.88767 105.966 2.87784 107.229 4.17529C108.493 5.4386 109.466 6.99214 110.148 8.83589C110.866 10.6796 111.224 12.7624 111.224 15.0842C111.224 17.7474 110.763 20.4106 109.841 23.0738C108.953 25.7028 107.639 28.0758 105.898 30.1927C104.19 32.2755 102.091 33.9656 99.5981 35.263C97.1056 36.5605 94.2717 37.2092 91.0964 37.2092ZM126.836 0.590217C128.987 0.590217 130.916 0.829222 132.624 1.30723C134.365 1.7511 135.833 2.4169 137.028 3.30463C138.223 4.15822 139.145 5.21667 139.794 6.47998C140.443 7.7433 140.767 9.16025 140.767 10.7309C140.767 13.2916 140.272 15.4597 139.282 17.2352C138.291 19.0107 136.926 20.4447 135.184 21.5373C133.443 22.6299 131.394 23.4152 129.039 23.8932C126.683 24.3712 124.122 24.6102 121.356 24.6102H119.359L116.491 36.4922H108.552L116.901 1.51209C118.744 1.17066 120.486 0.931653 122.124 0.795078C123.798 0.658504 125.368 0.590217 126.836 0.590217ZM126.17 7.29943C125.59 7.29943 125.095 7.3165 124.685 7.35065C124.276 7.38479 123.866 7.41893 123.456 7.45308L120.998 17.901H122.995C124.429 17.901 125.727 17.7986 126.888 17.5937C128.083 17.3547 129.09 16.9791 129.909 16.467C130.763 15.9548 131.412 15.3061 131.855 14.5208C132.333 13.7014 132.572 12.7112 132.572 11.5503C132.572 10.0138 132.009 8.92125 130.882 8.27252C129.79 7.62379 128.219 7.29943 126.17 7.29943ZM136.653 36.4922L145.155 0.99994H168.355L166.716 7.55551H151.505L149.866 14.7257H163.285L161.697 21.1788H148.279L146.23 29.8854H162.619L160.98 36.4922H136.653ZM186.421 36.4922C184.987 32.4632 183.383 28.4343 181.607 24.4054C179.866 20.3764 177.971 16.5694 175.922 12.9843L170.289 36.4922H162.453L170.954 0.99994H177.049C177.834 2.19496 178.671 3.61192 179.559 5.25082C180.48 6.85556 181.419 8.59689 182.375 10.4748C183.331 12.3527 184.287 14.3159 185.243 16.3645C186.199 18.379 187.104 20.3764 187.958 22.3567L193.028 0.99994H200.967L192.414 36.4922H186.421Z" fill="#ED2E3C"/>
<path d="M9.50175 1L1 36.4922H8.10265L16.6044 1H9.50175Z" fill="#ED2E3C"/>
</svg>
